<svg width="97" height="40" viewBox="0 0 97 40" fill="none" xmlns="http://www.w3.org/2000/svg">
<rect x="2" y="36" width="83" height="4" fill="#00B51D"/>
<path d="M9.555 31.595C8.24833 31.595 6.98833 31.42 5.775 31.07C4.56167 30.7433 3.57 30.265 2.8 29.635C2.03 28.9817 1.645 28.235 1.645 27.395V23.3H2.625C2.975 25.68 3.71 27.395 4.83 28.445C5.95 29.495 7.51333 30.02 9.52 30.02C10.8733 30.02 11.9467 29.7283 12.74 29.145C13.5333 28.5617 13.93 27.7217 13.93 26.625C13.93 25.6917 13.6383 24.8983 13.055 24.245C12.4717 23.5917 11.5617 22.88 10.325 22.11L6.02 19.52C4.45667 18.61 3.33667 17.665 2.66 16.685C2.00667 15.705 1.68 14.5617 1.68 13.255C1.68 11.4117 2.38 9.95333 3.78 8.88C5.20333 7.80667 7.11667 7.27 9.52 7.27C10.8267 7.27 12.0867 7.445 13.3 7.795C14.5133 8.12166 15.505 8.61166 16.275 9.265C17.045 9.895 17.43 10.63 17.43 11.47V15.565H16.45C16.0533 13.185 15.3183 11.47 14.245 10.42C13.1717 9.37 11.725 8.845 9.905 8.845C8.645 8.845 7.64167 9.14833 6.895 9.755C6.17167 10.3617 5.81 11.19 5.81 12.24C5.81 13.15 6.09 13.9083 6.65 14.515C7.23333 15.0983 8.16667 15.7633 9.45 16.51L13.755 19.065C15.3883 20.0217 16.555 20.955 17.255 21.865C17.9783 22.7517 18.34 23.825 18.34 25.085C18.34 27.115 17.57 28.7133 16.03 29.88C14.5133 31.0233 12.355 31.595 9.555 31.595ZM41.5991 31.14C40.1291 31.14 38.7991 30.8367 37.6091 30.23C36.4191 29.6 35.4508 28.3867 34.7041 26.59L33.8991 24.63H24.5891L21.7191 31H19.8991L30.2241 7.9H31.7991L39.6391 26.59C40.5258 28.76 41.7391 29.9267 43.2791 30.09V30.965C42.8591 31.0817 42.2991 31.14 41.5991 31.14ZM25.3241 23.055H33.2341L29.3841 13.92L25.3241 23.055ZM45.6053 12.45C45.6053 11.26 45.4419 10.385 45.1153 9.825C44.7886 9.24167 44.1353 8.95 43.1553 8.95H42.8053V7.9H57.4703C59.4536 7.9 60.4453 8.83333 60.4453 10.7V13.675H59.3953C59.3953 12.205 59.0219 11.1433 58.2753 10.49C57.5519 9.81333 56.4669 9.475 55.0203 9.475H50.1553V18.4H57.8553V19.975H50.1553V31H45.6053V12.45ZM85.4025 38.175C82.5558 38.175 79.8491 37.615 77.2825 36.495C74.7158 35.375 72.4175 33.59 70.3875 31.14C67.9608 30.3933 66.0358 28.97 64.6125 26.87C63.1891 24.7467 62.4775 22.2733 62.4775 19.45C62.4775 17.1633 62.9558 15.0867 63.9125 13.22C64.8691 11.3533 66.2225 9.88333 67.9725 8.81C69.7458 7.73667 71.7641 7.2 74.0275 7.2C76.2908 7.2 78.2975 7.73667 80.0475 8.81C81.7975 9.88333 83.1508 11.3533 84.1075 13.22C85.0641 15.0867 85.5425 17.1633 85.5425 19.45C85.5425 22.3667 84.8075 24.8867 83.3375 27.01C81.8675 29.1333 79.8725 30.545 77.3525 31.245C77.7491 32.3417 78.3908 33.345 79.2775 34.255C80.1875 35.1883 81.1908 35.9233 82.2875 36.46C83.3841 36.9967 84.4225 37.265 85.4025 37.265V38.175ZM74.0275 30.125C76.1508 30.125 77.7958 29.2033 78.9625 27.36C80.1291 25.4933 80.7125 22.8567 80.7125 19.45C80.7125 16.0433 80.1291 13.4183 78.9625 11.575C77.7958 9.70833 76.1508 8.775 74.0275 8.775C71.9041 8.775 70.2591 9.70833 69.0925 11.575C67.9491 13.4183 67.3775 16.0433 67.3775 19.45C67.3775 22.8567 67.9491 25.4933 69.0925 27.36C70.2591 29.2033 71.9041 30.125 74.0275 30.125Z" fill="black"/>
</svg>
